<svg xmlns="http://www.w3.org/2000/svg" viewBox="0 0 433.52 430.02"><defs><style>.cls-1,.cls-3{fill:none;}.cls-2{fill:#fff;}.cls-3{stroke:#fff;stroke-miterlimit:10;stroke-width:10px;}</style></defs><g id="Layer_2" data-name="Layer 2"><g id="Layer_1_copy" data-name="Layer 1 copy"><path class="cls-1" d="M12.75,215c0,114.26,92.62,206.89,206.88,206.89V8.12C105.37,8.12,12.75,100.75,12.75,215Z"/><path class="cls-1" d="M224,426.23h-4.33C103.17,426.23,8.42,331.48,8.42,215S103.17,3.79,219.63,3.79H224ZM215.31,12.5C105.61,14.81,17.08,104.76,17.08,215s88.52,200.2,198.23,202.51Z"/><path class="cls-1" d="M219.63,426.23h-4.32V3.79h4.32C336.1,3.79,430.86,98.54,430.86,215S336.1,426.23,219.63,426.23ZM224,12.5v405C333.67,415.21,422.19,325.25,422.19,215S333.67,14.81,224,12.5Z"/><polygon class="cls-1" points="253.7 173.21 216.13 211.37 216.65 211.88 253.7 173.21"/><polygon class="cls-2" points="147.73 142.97 95.27 142.97 95.27 347.73 154.52 347.73 154.52 211.88 182.02 246.02 216.13 211.37 147.73 142.97"/><circle class="cls-2" cx="125.49" cy="106.29" r="30.21"/><path class="cls-2" d="M219.63,8.12V208.76l34.07-35.55,7.52-7.85.65-.65,22.88-23.87H344V347.73H284.75l-.79-132-64.33,70.05V421.9c114.27,0,206.89-92.63,206.89-206.89S333.9,8.12,219.63,8.12Zm124,103a30.22,30.22,0,1,1-25-34.67A30.2,30.2,0,0,1,343.63,111.13Z"/><ellipse class="cls-3" cx="216.76" cy="215.01" rx="211.76" ry="210.01"/></g></g></svg>